<?xml version="1.0" encoding="UTF-8" standalone="no"?>
<!DOCTYPE svg PUBLIC "-//W3C//DTD SVG 1.1//EN" "http://www.w3.org/Graphics/SVG/1.1/DTD/svg11.dtd">
<svg version="1.1" xmlns="http://www.w3.org/2000/svg" xmlns:xlink="http://www.w3.org/1999/xlink" preserveAspectRatio="xMidYMid meet" viewBox="0 0 100 100" width="100" height="100"><defs><path d="M94.91 49.22C94.91 72.93 75.66 92.19 51.94 92.19C28.23 92.19 8.98 72.93 8.98 49.22C8.98 25.5 28.23 6.25 51.94 6.25C75.66 6.25 94.91 25.5 94.91 49.22Z" id="e18Tpffgoh"></path><path d="M31.69 62.59L32.74 58.98C30.34 58.98 29.01 58.98 28.74 58.98C26.63 58.98 24.91 57.91 24.91 56.59C24.91 54.92 24.91 41.56 24.91 39.9C24.91 38.57 26.63 37.5 28.74 37.5C33.38 37.5 70.51 37.5 75.15 37.5C77.26 37.5 78.98 38.57 78.98 39.9C78.98 41.56 78.98 54.92 78.98 56.59C78.98 57.91 77.26 58.98 75.15 58.98C73.04 58.98 62.51 58.98 43.55 58.98L31.69 62.59Z" id="g1CDnOhVXS"></path></defs><g><g><g><g><use xlink:href="#e18Tpffgoh" opacity="1" fill="#00a4bf" fill-opacity="1"></use></g><g><use xlink:href="#g1CDnOhVXS" opacity="1" fill="#ffffff" fill-opacity="1"></use></g></g></g></g></svg>