<?xml version="1.0" encoding="UTF-8" standalone="no"?>
<!DOCTYPE svg PUBLIC "-//W3C//DTD SVG 1.1//EN" "http://www.w3.org/Graphics/SVG/1.1/DTD/svg11.dtd">
<svg version="1.1" xmlns="http://www.w3.org/2000/svg" xmlns:xlink="http://www.w3.org/1999/xlink" preserveAspectRatio="xMidYMid meet" viewBox="0 0 100 100" width="100" height="100"><defs><path d="M94.53 49.22C94.53 72.93 75.28 92.19 51.56 92.19C27.85 92.19 8.59 72.93 8.59 49.22C8.59 25.5 27.85 6.25 51.56 6.25C75.28 6.25 94.53 25.5 94.53 49.22Z" id="b63omLeZD5"></path><path d="M23.91 29.69L81.34 29.69L81.34 67.02L23.91 67.02L23.91 29.69Z" id="a3awdMEWVk"></path><path d="M44.27 34.93C45.69 34.93 46.85 36.08 46.85 37.5C46.85 42.72 46.85 55.8 46.85 61.02C46.85 62.44 45.69 63.59 44.27 63.59C41.11 63.59 34.18 63.59 31.02 63.59C29.6 63.59 28.45 62.44 28.45 61.02C28.45 55.8 28.45 42.72 28.45 37.5C28.45 36.08 29.6 34.93 31.02 34.93C34.18 34.93 41.11 34.93 44.27 34.93Z" id="f1LuHhYZH5"></path><path d="M71.4 35.15C72.66 35.15 73.67 36.17 73.67 37.42C73.67 39.13 73.67 41.96 73.67 43.66C73.67 44.92 72.66 45.94 71.4 45.94C67.57 45.94 58.36 45.94 54.54 45.94C53.28 45.94 52.26 44.92 52.26 43.66C52.26 41.96 52.26 39.13 52.26 37.42C52.26 36.17 53.28 35.15 54.54 35.15C58.36 35.15 67.57 35.15 71.4 35.15Z" id="c5Xbz5bfz6"></path><path d="M73.05 50.24C73.76 50.24 74.34 50.82 74.34 51.54C74.34 51.79 74.34 51.28 74.34 51.54C74.34 52.25 73.76 52.83 73.05 52.83C68.76 52.83 57.18 52.83 52.89 52.83C52.18 52.83 51.6 52.25 51.6 51.54C51.6 51.28 51.6 51.79 51.6 51.54C51.6 50.82 52.18 50.24 52.89 50.24C57.18 50.24 68.76 50.24 73.05 50.24Z" id="bC8sB3Pdg"></path><path d="M73.05 54.87C73.76 54.87 74.34 55.45 74.34 56.17C74.34 56.43 74.34 55.91 74.34 56.17C74.34 56.88 73.76 57.46 73.05 57.46C68.76 57.46 57.18 57.46 52.89 57.46C52.18 57.46 51.6 56.88 51.6 56.17C51.6 55.91 51.6 56.43 51.6 56.17C51.6 55.45 52.18 54.87 52.89 54.87C57.18 54.87 68.76 54.87 73.05 54.87Z" id="ajm9tOVkK"></path><path d="M73.05 59.74C73.76 59.74 74.34 60.32 74.34 61.03C74.34 61.29 74.34 60.77 74.34 61.03C74.34 61.75 73.76 62.33 73.05 62.33C68.76 62.33 57.18 62.33 52.89 62.33C52.18 62.33 51.6 61.75 51.6 61.03C51.6 60.77 51.6 61.29 51.6 61.03C51.6 60.32 52.18 59.74 52.89 59.74C57.18 59.74 68.76 59.74 73.05 59.74Z" id="loBUI6aC5"></path><path d="M23.91 29.74L81.47 29.74L81.47 32.93L23.91 32.93L23.91 29.74Z" id="ap1PWSAND"></path></defs><g><g><g><g><use xlink:href="#b63omLeZD5" opacity="1" fill="#22d1ee" fill-opacity="1"></use></g><g><g><g><use xlink:href="#a3awdMEWVk" opacity="1" fill-opacity="0" stroke="#ffffff" stroke-width="2" stroke-opacity="1"></use></g></g><g><g><use xlink:href="#f1LuHhYZH5" opacity="1" fill="#ffffff" fill-opacity="1"></use></g><g><use xlink:href="#c5Xbz5bfz6" opacity="1" fill="#ffffff" fill-opacity="1"></use></g><g><use xlink:href="#bC8sB3Pdg" opacity="1" fill="#ffffff" fill-opacity="1"></use></g><g><use xlink:href="#ajm9tOVkK" opacity="1" fill="#ffffff" fill-opacity="1"></use></g><g><use xlink:href="#loBUI6aC5" opacity="1" fill="#ffffff" fill-opacity="1"></use></g><g><use xlink:href="#ap1PWSAND" opacity="1" fill="#ffffff" fill-opacity="1"></use></g></g></g></g></g></g></svg>