<svg width="1920" height="1080" viewBox="0 0 1920 1080" fill="none" xmlns="http://www.w3.org/2000/svg">
<g clip-path="url(#clip0_1174_30)">
<rect width="1920" height="1080" fill="#ADD0EC"/>
<path d="M254.806 641.61C338.506 655.394 397.81 793.638 417 861.038V1083H0V521C50.06 555.46 171.105 627.826 254.806 641.61Z" fill="url(#paint0_linear_1174_30)"/>
<path d="M1358.5 819.208C1297 857 1002 964.737 1002 964.737L979 1081H1917C1917 1081 1956 736.5 1917 722.188C1878 707.875 1803.5 638.799 1803.5 638.799C1799.11 606.704 1789.6 589.612 1754.5 561.5C1677.07 553.218 1623 560.92 1551 577.46C1479 594 1420 781.415 1358.5 819.208Z" fill="url(#paint1_linear_1174_30)"/>
<path d="M401.486 891.342L220 1094H1319L1229.22 1017.63L1002.6 957.231L686.199 798L401.486 891.342Z" fill="#0B4E82"/>
<path d="M123.037 833.635C127.388 826.825 129.682 830.998 130.836 837.454C131.99 843.911 131.724 874.421 132.878 883.318C134.033 892.176 135.838 904.42 137.54 912.018C139.597 921.23 143.105 934.694 147.589 930.6C150.356 928.08 151.999 918.435 152.132 913.002C152.265 907.53 148.625 888.673 149.557 866.666C150.297 849.383 152.62 844.147 154.456 840.564C156.646 836.273 159.798 835.643 161.84 836.234C163.986 836.864 165.067 838.675 165.067 847.218C165.067 855.761 163.75 870.721 164.016 882.964C164.282 895.208 166.369 905.64 165.851 916.545C165.333 927.451 163.276 945.245 163.276 945.245C163.276 945.245 166.339 957.764 169.166 962.213C173.206 968.591 175.781 968.394 175.781 968.394C175.781 968.394 178.786 931.82 180.606 914.262C182.663 894.538 185.845 877.059 185.963 870.917C186.096 864.776 182.323 820.447 180.561 810.251C177.735 793.952 171.963 769.662 170.513 759.347C168.056 742.064 170.143 728.994 175.87 724.152C179.614 720.963 182.293 730.136 184.986 742.419C186.866 751.001 189.559 764.741 191.483 776.354C193.407 787.968 197.891 823.36 202.894 822.337C207.896 821.313 211.477 805.841 211.596 795.251C211.729 784.7 208.266 746.592 208.769 724.782C209.124 709.822 213.534 706.239 215.591 704.231C216.997 702.853 219.928 707.814 221.644 714.349C223.361 720.884 224.279 727.577 224.959 748.285C225.625 768.796 224.456 796.117 227.668 798.164C230.183 799.779 229.976 788.873 233.188 792.613C236.666 796.668 236.991 811.432 235.363 817.77C231.382 833.281 225.877 834.541 224.722 838.281C223.568 842.021 218.906 857.611 217.249 863.398C215.591 869.185 213.623 875.051 209.524 884.933C205.424 894.814 203.16 902.097 201.68 909.735C199.963 918.553 197.684 939.497 196.53 952.45C195.376 965.402 194.991 972.606 196.53 981.464C198.069 990.322 200.333 995.479 200.333 995.479C200.333 995.479 204.018 973.63 210.752 977.527C214.319 979.614 215.858 985.716 216.879 992.527C217.9 999.337 217.056 1012.49 215.769 1018.63C214.481 1024.77 213.164 1031.86 215.517 1036.58C217.486 1040.48 221.156 1037.88 224.708 1027.45C229.606 1013.04 232.27 1003.04 233.41 990.243C234.52 977.842 234.446 964.103 233.661 942.607C232.684 916.191 229.503 898.987 230.672 881.665C231.471 869.894 235.126 865.288 235.126 865.288C235.126 865.288 237.006 862.217 241.742 865.288C246.477 868.358 246.507 884.224 247.01 899.223C247.528 914.223 246.152 940.324 250.562 940.639C253.892 940.875 261.129 938.986 266.501 924.34C271.873 909.695 276.668 875.366 276.919 861.075C277.171 846.745 275.839 827.179 278.029 818.99C280.22 810.802 282.647 807.101 286.361 810.172C290.076 813.243 290.106 826.628 290.535 833.006C291.304 844.58 290.283 879.972 290.283 879.972C290.283 879.972 293.184 873.083 295.123 874.028C297.89 875.405 299 879.933 299 887.137C299 907.373 291.216 933.946 280.974 960.52C270.674 987.251 259.412 993.472 257.695 999.652C255.638 1007.05 254.262 1021.07 247.869 1043.71C242.541 1062.52 235.689 1081.7 232.847 1088.31C231.871 1090.59 238.427 1106.03 238.427 1106.03C238.427 1106.03 239.463 1094.65 243.947 1093.31C246.448 1092.56 248.372 1094.22 249.733 1097.88C250.828 1100.79 251.598 1105.36 251.702 1108.55C251.953 1115.71 250.962 1125.51 247.129 1135.71C243.296 1145.91 238.116 1156.22 210.693 1154.88C183.27 1153.54 174.375 1155.28 173.073 1135.08C171.726 1114.21 178.001 1107.48 178.83 1106.38C181.065 1103.35 183.003 1101.5 183.373 1099.53C183.98 1096.26 172.215 1088.43 164.489 1076.38C158.007 1066.26 158.747 1059.34 159.088 1054.53C159.695 1046.07 163.809 1037.68 167.523 1039.73C171.238 1041.78 176.492 1050.99 176.492 1050.99C176.492 1050.99 184.676 1068.07 185.697 1064.65C187.177 1059.73 187.088 1046.54 177.972 1033C171.549 1023.47 163.246 1017.01 147.811 991.228C133.367 967.134 121.838 928.632 119.145 893.397C116.584 860.052 118.508 840.722 123.037 833.635V833.635Z" fill="#0B4E82"/>
<path d="M1567.27 496.178C1567.27 496.178 1570.47 496.348 1571.25 497.998C1572.03 499.648 1571.08 506.828 1571.86 509.078C1572.64 511.328 1574.09 515.108 1575.24 517.038C1576.63 519.378 1581.13 523.528 1584.16 522.488C1586.03 521.848 1586.76 520.498 1586.84 519.108C1586.93 517.718 1585.2 508.718 1585.37 505.688C1585.54 502.658 1586.04 500.558 1587.36 499.278C1588.22 498.448 1589.18 497.638 1590.56 497.718C1591.95 497.808 1593.16 498.408 1593.16 500.578C1593.16 502.738 1592.73 506.118 1592.9 509.238C1593.07 512.358 1594.32 515.278 1594.29 518.068C1594.24 522.258 1593.08 524.738 1593.08 524.738C1593.08 524.738 1594.12 527.158 1596.02 528.288C1598.75 529.908 1600.26 530.448 1600.26 530.448C1600.26 530.448 1602.06 522.008 1603.29 517.548C1604.68 512.528 1608.49 502.838 1608.48 501.268C1608.47 497.818 1607.18 493.308 1606.23 490.618C1605.28 487.928 1600.87 480.448 1599.74 477.888C1598.18 474.378 1597.58 470.098 1600.09 469.228C1602.6 468.358 1605.28 469.748 1607.1 472.868C1608.37 475.048 1610.33 478.278 1611.52 481.268C1613.24 485.608 1615.44 492.618 1618.82 492.358C1622.2 492.098 1622.87 489.068 1622.95 486.378C1623.03 483.688 1620.96 474.768 1621.3 469.228C1621.54 465.428 1624.46 464.268 1625.67 464.058C1626.67 463.888 1627.65 464.148 1627.65 464.148C1627.65 464.148 1629.26 468.138 1629.96 474.508C1630.53 479.718 1629.53 486.718 1631.69 487.238C1633.39 487.648 1635.85 485.248 1638.01 486.198C1640.36 487.228 1640.52 488.278 1639.91 488.968C1639.3 489.658 1632.12 495.288 1631.34 496.238C1630.56 497.188 1628.42 500.048 1627.3 501.518C1626.18 502.988 1624.46 504.678 1621.69 507.188C1618.92 509.698 1617.48 511.058 1616.27 512.868C1615.06 514.688 1612.73 522.118 1611.95 525.408C1611.17 528.698 1610.65 532.938 1611.69 535.188C1612.73 537.438 1615.85 539.858 1615.85 539.858C1615.85 539.858 1617.84 534.488 1620.18 533.708C1622.52 532.928 1624.94 533.448 1625.63 535.178C1626.32 536.908 1625.8 539.848 1624.94 541.408C1624.07 542.968 1621.65 547.558 1623.38 549.808C1625.11 552.058 1627.02 553.448 1631.26 551.538C1635.5 549.638 1638.96 543.918 1640.35 540.888C1641.74 537.858 1642.43 535.178 1642.95 529.718C1643.47 524.268 1640.73 512.908 1640.35 509.888C1639.97 506.908 1640.14 505.078 1640.14 505.078C1640.14 505.078 1641.71 504.018 1644.51 504.568C1647.74 505.208 1648.83 509.538 1649.18 513.348C1649.53 517.158 1648.49 523.648 1650.74 523.648C1652.99 523.648 1657.32 522.958 1660.96 519.228C1664.6 515.498 1667.37 507.538 1667.54 503.908C1667.71 500.268 1667.11 494.468 1668.58 492.398C1670.05 490.328 1672.22 489.368 1674.73 490.148C1677.24 490.928 1678.25 494.068 1678.54 495.688C1679.06 498.628 1678.28 507.898 1678.28 507.898C1678.28 507.898 1679.41 507.028 1680.7 507.288C1682 507.548 1681.83 509.798 1681.22 511.528C1680.61 513.258 1676.37 520.008 1668.84 526.068C1661.31 532.128 1655.69 533.178 1654.22 534.998C1652.75 536.818 1648.68 545.168 1646.07 548.488C1642.75 552.708 1637.3 557.778 1636.63 558.448C1635.85 559.228 1637.93 560.908 1639.05 562.258C1640.35 563.818 1641.82 565.378 1641.82 565.378C1641.82 565.378 1642.86 563.218 1645.89 562.868C1648.92 562.518 1650.05 564.168 1650.05 564.168C1650.05 564.168 1648.78 569.148 1646.33 572.218C1644.04 575.088 1642.17 578.968 1623.65 578.628C1605.13 578.288 1601.58 577.678 1600.19 572.658C1599.06 568.588 1602.18 566.438 1602.7 566.078C1603.83 565.298 1606.68 564.258 1606.51 562.698C1606.28 560.668 1599.67 559.928 1594.56 556.548C1589.45 553.168 1590.12 550.828 1590.12 550.828C1590.12 550.828 1591.91 548.908 1594.46 549.158C1597.18 549.428 1599.61 551.558 1600.88 552.178C1603.13 553.258 1611.18 555.778 1611.87 554.908C1612.87 553.658 1612.64 551.338 1606.42 546.338C1601.69 542.528 1593.26 539.848 1582.61 533.178C1572.11 526.668 1567.18 517.368 1565.63 511.068C1563.55 502.668 1567.27 496.178 1567.27 496.178Z" fill="#018AD4"/>
<path d="M1645.91 465.778C1645.91 465.778 1649.03 466.568 1649.42 468.748C1649.82 470.927 1647.25 479.625 1647.51 482.546C1647.77 485.467 1648.34 490.399 1649.04 492.992C1649.88 496.134 1653.37 502.076 1656.6 501.34C1658.59 500.888 1659.61 499.353 1660.01 497.65C1660.41 495.949 1660.75 484.518 1661.6 480.805C1662.46 477.093 1663.43 474.589 1665.02 473.247C1666.06 472.378 1667.19 471.551 1668.53 471.9C1669.88 472.263 1670.94 473.223 1670.44 475.904C1669.95 478.572 1668.76 482.67 1668.22 486.555C1667.68 490.44 1668.25 494.274 1667.59 497.715C1666.59 502.882 1664.88 505.735 1664.88 505.735C1664.88 505.735 1665.36 508.913 1666.98 510.653C1669.3 513.149 1670.67 514.09 1670.67 514.09C1670.67 514.09 1674.36 503.989 1676.58 498.703C1679.09 492.753 1685.05 481.473 1685.4 479.531C1686.17 475.268 1685.92 469.462 1685.59 465.967C1685.27 462.472 1682.61 452.433 1682.08 449.066C1681.34 444.447 1681.72 439.051 1684.39 438.431C1687.06 437.811 1689.39 440.014 1690.48 444.197C1691.24 447.121 1692.44 451.466 1692.93 455.375C1693.64 461.048 1694.22 470.106 1697.61 470.397C1701.01 470.688 1702.36 467.067 1703.04 463.758C1703.73 460.45 1703.72 449.055 1705.31 442.273C1706.41 437.622 1709.55 436.718 1710.79 436.678C1711.82 436.649 1712.72 437.148 1712.72 437.148C1712.72 437.148 1713.41 442.368 1712.65 450.364C1712.03 456.904 1709.46 465.37 1711.47 466.404C1713.05 467.218 1716.02 464.699 1717.94 466.264C1720.02 467.962 1719.94 469.288 1719.18 470.03C1718.43 470.772 1710.07 476.426 1709.08 477.458C1708.1 478.491 1705.34 481.636 1703.9 483.249C1702.46 484.862 1700.38 486.639 1697.08 489.237C1693.78 491.836 1692.05 493.256 1690.45 495.272C1688.84 497.302 1684.86 506.058 1683.34 509.981C1681.82 513.904 1680.35 519.048 1680.86 522.016C1681.38 524.984 1683.91 528.538 1683.91 528.538C1683.91 528.538 1687.09 522.265 1689.57 521.725C1692.06 521.186 1694.33 522.266 1694.61 524.529C1694.9 526.791 1693.72 530.328 1692.52 532.1C1691.31 533.869 1687.88 539.101 1689.08 542.194C1690.27 545.287 1691.84 547.35 1696.46 545.759C1701.07 544.18 1705.78 537.74 1707.84 534.249C1709.89 530.757 1711.18 527.572 1712.93 520.921C1714.68 514.283 1714.56 499.753 1714.87 495.953C1715.17 492.203 1715.75 489.973 1715.75 489.973C1715.75 489.973 1717.54 488.948 1720.18 490.135C1723.22 491.51 1723.31 497.057 1722.79 501.827C1722.27 506.597 1719.78 514.426 1721.99 514.834C1724.21 515.241 1728.64 515.173 1733.08 511.225C1737.51 507.276 1742.05 497.945 1743.04 493.491C1744.04 489.025 1744.76 481.751 1746.68 479.461C1748.6 477.17 1750.96 476.377 1753.26 477.795C1755.55 479.213 1755.84 483.275 1755.76 485.329C1755.6 489.055 1752.73 500.366 1752.73 500.366C1752.73 500.366 1754.04 499.495 1755.25 500.05C1756.48 500.607 1755.8 503.356 1754.8 505.382C1753.81 507.409 1748.1 514.98 1739.3 521.102C1730.49 527.224 1724.71 527.503 1722.85 529.485C1720.99 531.467 1715.08 541.045 1711.75 544.674C1707.52 549.285 1701 554.561 1700.18 555.268C1699.24 556.09 1700.91 558.542 1701.71 560.413C1702.63 562.575 1703.73 564.769 1703.73 564.769C1703.73 564.769 1705.24 562.289 1708.31 562.405C1711.38 562.522 1712.12 564.765 1712.12 564.765C1712.12 564.765 1709.74 570.687 1706.62 574.035C1703.72 577.166 1700.99 581.62 1682.8 577.846C1664.62 574.071 1661.25 572.674 1661.02 566.221C1660.83 560.988 1664.4 558.898 1664.99 558.547C1666.28 557.788 1669.33 557.02 1669.51 555.062C1669.75 552.512 1663.4 550.401 1659.12 545.3C1654.85 540.199 1656.04 537.429 1656.04 537.429C1656.04 537.429 1658.24 535.382 1660.7 536.152C1663.32 536.979 1665.24 540.05 1666.35 541.046C1668.32 542.788 1675.69 547.359 1676.57 546.409C1677.84 545.046 1678.14 542.139 1673.14 534.835C1669.34 529.272 1661.63 524.434 1652.64 514.265C1643.76 504.321 1641.01 491.939 1640.91 483.876C1640.77 473.122 1645.91 465.778 1645.91 465.778Z" fill="#018AD4"/>
<path d="M1799.88 540.285C1799.88 540.285 1803.64 541.504 1803.93 544.325C1804.22 547.147 1800.29 558.13 1800.34 561.892C1800.4 565.655 1800.66 572.018 1801.29 575.388C1802.04 579.474 1805.81 587.324 1809.85 586.594C1812.34 586.147 1813.74 584.245 1814.37 582.088C1815.02 579.934 1816.46 565.297 1817.85 560.594C1819.23 555.89 1820.65 552.744 1822.73 551.128C1824.08 550.082 1825.55 549.096 1827.17 549.633C1828.8 550.188 1830.01 551.489 1829.17 554.894C1828.33 558.283 1826.49 563.459 1825.48 568.405C1824.47 573.351 1824.83 578.305 1823.7 582.673C1822.01 589.233 1819.65 592.779 1819.65 592.779C1819.65 592.779 1819.95 596.886 1821.79 599.224C1824.43 602.579 1826.03 603.875 1826.03 603.875C1826.03 603.875 1831.47 591.168 1834.68 584.536C1838.31 577.073 1846.65 563.002 1847.25 560.536C1848.58 555.119 1848.79 547.659 1848.7 543.155C1848.62 538.652 1846.25 525.603 1845.89 521.25C1845.39 515.278 1846.34 508.384 1849.69 507.766C1853.04 507.147 1855.7 510.126 1856.67 515.563C1857.34 519.362 1858.43 525.013 1858.69 530.059C1859.05 537.38 1858.96 549.034 1863.1 549.632C1867.25 550.23 1869.24 545.675 1870.38 541.478C1871.53 537.281 1872.53 522.669 1875.09 514.077C1876.86 508.186 1880.81 507.235 1882.34 507.266C1883.61 507.297 1884.68 507.996 1884.68 507.996C1884.68 507.996 1885.05 514.736 1883.41 524.939C1882.06 533.284 1878.13 543.97 1880.52 545.429C1882.39 546.578 1886.27 543.544 1888.49 545.678C1890.9 547.993 1890.69 549.688 1889.69 550.589C1888.69 551.49 1877.89 558.188 1876.59 559.446C1875.28 560.705 1871.6 564.555 1869.69 566.529C1867.78 568.502 1865.06 570.642 1860.76 573.756C1856.46 576.87 1854.21 578.575 1852.05 581.055C1849.9 583.551 1844.21 594.516 1841.99 599.446C1839.77 604.376 1837.5 610.874 1837.87 614.714C1838.24 618.554 1841.03 623.28 1841.03 623.28C1841.03 623.28 1845.51 615.446 1848.61 614.919C1851.72 614.391 1854.41 615.927 1854.57 618.847C1854.72 621.767 1852.95 626.225 1851.31 628.417C1849.66 630.606 1844.97 637.088 1846.17 641.133C1847.36 645.178 1849.11 647.928 1854.93 646.193C1860.75 644.473 1867.12 636.528 1869.97 632.187C1872.82 627.846 1874.69 623.847 1877.44 615.434C1880.19 607.037 1881.33 588.397 1882.06 583.545C1882.76 578.757 1883.68 575.936 1883.68 575.936C1883.68 575.936 1885.97 574.74 1889.11 576.436C1892.73 578.401 1892.35 585.52 1891.28 591.602C1890.22 597.685 1886.44 607.558 1889.14 608.228C1891.83 608.898 1897.29 609.104 1903.1 604.334C1908.91 599.565 1915.33 587.899 1916.95 582.254C1918.58 576.593 1920.12 567.314 1922.69 564.503C1925.25 561.693 1928.23 560.832 1930.93 562.803C1933.63 564.774 1933.62 570.001 1933.33 572.63C1932.81 577.397 1928.26 591.711 1928.26 591.711C1928.26 591.711 1929.95 590.682 1931.4 591.474C1932.85 592.269 1931.77 595.748 1930.37 598.281C1928.96 600.814 1921.25 610.144 1909.87 617.412C1898.49 624.679 1891.35 624.654 1888.88 627.073C1886.41 629.491 1878.28 641.382 1873.86 645.814C1868.24 651.448 1859.73 657.781 1858.67 658.633C1857.43 659.625 1859.27 662.88 1860.08 665.331C1861.03 668.166 1862.18 671.051 1862.18 671.051C1862.18 671.051 1864.27 667.972 1868.04 668.324C1871.8 668.677 1872.51 671.602 1872.51 671.602C1872.51 671.602 1869.05 679.038 1864.92 683.126C1861.06 686.948 1857.3 692.479 1835.26 686.434C1813.21 680.389 1809.19 678.376 1809.49 670.085C1809.72 663.363 1814.29 660.918 1815.06 660.508C1816.71 659.62 1820.53 658.837 1820.94 656.338C1821.45 653.085 1813.83 649.956 1809.02 643.132C1804.22 636.308 1805.94 632.836 1805.94 632.836C1805.94 632.836 1808.83 630.356 1811.78 631.507C1814.94 632.74 1817.02 636.805 1818.3 638.156C1820.57 640.52 1829.23 646.87 1830.39 645.71C1832.08 644.046 1832.71 640.338 1827.21 630.641C1823.03 623.255 1813.98 616.542 1803.82 602.906C1793.78 589.567 1791.51 573.507 1792.11 563.161C1792.89 549.362 1799.88 540.285 1799.88 540.285Z" fill="#018AD4"/>
<path d="M140.571 772.268C131.636 784.073 101.719 782.459 87.8768 780.176C90.194 831.214 27.0213 832.53 33.3154 830.907C38.3507 829.608 32.334 818.423 28.6962 812.993C32.7692 812.768 37.8394 803.062 39.8654 798.236C35.0238 799.485 26.7151 800.904 32.2132 796.595C37.7114 792.286 37.6913 788.47 36.994 787.101C29.7468 791.035 -5.81639 803.303 -10.4235 803.458C-14.1093 803.583 -16.3624 798.449 -17.0282 795.867C-20.3574 796.573 -45.0607 811.022 -48.5817 813.183C-48.6543 813.256 -48.7295 813.314 -48.8074 813.356C-49.1352 813.534 -49.0306 813.458 -48.5817 813.183C-46.012 810.601 -46.7957 789.321 -48.672 783.709C-49.0796 783.748 -49.1483 783.645 -48.7961 783.365C-45.7096 780.917 -63.8194 757.807 -66.8887 747.238L-21.2519 749.452C-14.5553 749.79 -14.7545 747.948 -15.6912 746.985C-28.534 742.035 -32.9505 730.781 -33.5534 725.773C-31.9286 722.463 -31.8959 714.846 -32.0826 711.452C-30.8329 709.891 -24.6375 706.951 -21.6959 705.676C-14.0492 703.291 9.82735 721.128 20.8098 730.344C26.7421 727.793 32.4262 725.827 37.8573 724.367L26.6563 700.953L22.6277 697.345C20.8423 696.428 16.266 693.099 12.2441 687.113C8.22222 681.128 14.8172 679.737 18.6174 679.79L41.115 723.544C44.3761 722.774 47.5421 722.187 50.6117 721.766L38.7603 697.832C35.7985 696.358 29.772 692.611 29.3603 689.412C28.9486 686.214 33.0418 684.332 35.1398 683.791L53.6162 721.402C56.0501 721.148 58.4206 720.999 60.7271 720.945L51.2237 694.102C49.6728 692.092 46.546 687.976 46.4461 687.589C46.3212 687.104 37.7951 682.074 39.5917 679.029C41.0289 676.593 44.9489 676.443 46.7293 676.672L64.3397 720.937C66.3018 720.976 68.2146 721.084 70.0775 721.254L64.6706 692.183C63.0882 691.387 60.0172 689.356 60.3924 687.607C60.7675 685.858 57.8427 681.724 56.3333 679.875C56.849 678.538 58.6329 675.978 61.6439 676.441C64.6548 676.903 70.6645 706.751 73.2929 721.617C75.1467 721.865 76.9475 722.176 78.6952 722.542L77.2147 691.014C75.6937 690.374 72.8174 688.534 73.48 686.297C74.1426 684.061 71.8519 679.316 70.6237 677.223C71.1977 675.526 73.1322 671.929 76.2784 671.118C79.4245 670.307 81.03 705.483 81.4395 723.173C82.9453 723.55 84.4085 723.968 85.829 724.422L92.4688 695.859L89.2837 691.517C92.8574 689.356 90.7119 682.37 89.1924 679.148L95.252 678.618C99.3495 681.692 92.2324 710.962 88.1617 725.212C89.966 725.86 91.6961 726.565 93.3514 727.316L106.196 699.032L103.745 695.533C105.869 694.159 104.725 685.986 103.888 682.071L112.853 680.792C117.437 684.154 103.46 714.023 95.8991 728.537C105.982 733.635 112.987 740.392 116.729 745.886C122.938 745.937 128.883 749.637 131.08 751.48C141.699 757.416 141.832 767.812 140.571 772.268Z" fill="#0B4E82"/>
<path d="M1314.94 1005.04C1319.82 1019.02 1348.79 1026.66 1362.67 1028.73C1344.81 1076.6 1404.54 1097.22 1399.05 1093.74C1394.65 1090.96 1403.81 1082.16 1408.94 1078.11C1405.13 1076.65 1403.28 1065.85 1402.83 1060.64C1407.06 1063.31 1414.53 1067.21 1410.62 1061.42C1406.71 1055.63 1407.89 1052.01 1408.98 1050.92C1414.67 1056.89 1444.76 1079.47 1449.1 1081.03C1452.57 1082.27 1456.29 1078.08 1457.71 1075.83C1460.66 1077.52 1479.75 1098.85 1482.44 1101.98C1482.48 1102.07 1482.54 1102.15 1482.6 1102.22C1482.85 1102.49 1482.78 1102.38 1482.44 1101.98C1480.78 1098.74 1488.05 1078.72 1491.56 1073.95C1491.93 1074.12 1492.03 1074.04 1491.78 1073.67C1489.59 1070.39 1513.92 1053.94 1520.08 1044.83L1475.96 1032.94C1469.48 1031.21 1470.24 1029.52 1471.42 1028.89C1485.17 1028.11 1492.82 1018.76 1494.93 1014.17C1494.4 1010.52 1496.7 1003.27 1497.92 1000.09C1497.21 998.222 1492.21 993.524 1489.81 991.409C1483.26 986.795 1455.06 996.452 1441.78 1001.86C1436.92 997.61 1432.11 993.996 1427.39 990.941L1445.23 972.089L1450.17 969.89C1452.15 969.565 1457.53 967.799 1463.19 963.335C1468.85 958.871 1463 955.525 1459.37 954.41L1424.54 989.159C1421.67 987.426 1418.84 985.897 1416.05 984.555L1434.67 965.407C1437.94 964.913 1444.82 963.194 1446.19 960.275C1447.57 957.357 1444.25 954.311 1442.42 953.153L1413.3 983.288C1411.06 982.3 1408.85 981.431 1406.67 980.672L1423.95 958.036C1426.04 956.598 1430.28 953.639 1430.49 953.301C1430.76 952.878 1440.42 950.704 1439.64 947.255C1439.02 944.496 1435.33 943.151 1433.57 942.823L1403.23 979.558C1401.35 978.993 1399.5 978.509 1397.68 978.1L1411.73 952.087C1413.49 951.814 1417.03 950.822 1417.21 949.042C1417.39 947.263 1421.44 944.224 1423.44 942.928C1423.36 941.496 1422.45 938.513 1419.44 938.03C1416.43 937.548 1401.56 964.115 1394.5 977.459C1392.66 977.127 1390.85 976.871 1389.08 976.684L1400.15 947.128C1401.8 946.985 1405.1 946.115 1405.15 943.784C1405.21 941.452 1408.84 937.638 1410.65 936.022C1410.63 934.231 1409.89 930.214 1407.14 928.477C1404.4 926.74 1392.09 959.731 1386.27 976.443C1384.72 976.34 1383.2 976.289 1381.71 976.286L1384.15 947.063L1388.51 943.906C1385.77 940.754 1389.96 934.763 1392.39 932.161L1386.78 929.799C1381.94 931.469 1379.74 961.511 1379.25 976.323C1377.33 976.386 1375.47 976.527 1373.66 976.734L1370.11 945.874L1373.52 943.296C1371.91 941.337 1375.51 933.908 1377.51 930.438L1369.37 926.472C1363.97 928.266 1368.12 960.982 1370.86 977.116C1359.7 978.877 1350.96 983.161 1345.72 987.243C1339.79 985.388 1333 987.086 1330.34 988.167C1318.42 990.562 1315.1 1000.42 1314.94 1005.04Z" fill="#0B4E82"/>
<path d="M1440.93 674.972C1436.13 677.188 1434.3 679.445 1432.14 684.808C1432.14 684.808 1430.89 690.326 1435.91 696.371C1440.93 702.417 1450.29 702.417 1450.29 702.417C1450.29 702.417 1457.56 702.369 1464.63 700.306C1471.7 698.242 1474.38 691.189 1474.38 691.189C1474.38 691.189 1475.48 693.109 1478.44 698.242C1481.4 703.376 1485.75 704 1485.75 704L1484.84 689.894L1489 677.323C1489 677.323 1485.75 675.644 1480.83 680.874C1475.91 686.104 1474.38 683.273 1474.38 683.273L1473.71 680.874L1471.7 677.995C1471.7 677.995 1470.94 677.323 1472.71 675.644C1474.47 673.965 1474.95 674.157 1474.95 674.157L1465.2 666C1465.2 666 1461.86 666 1459.13 667.439C1456.41 668.879 1455.03 670.846 1455.03 670.846C1448.81 671.254 1445.83 672.341 1440.93 674.972Z" fill="#0B4E82"/>
<path d="M1482.93 633.972C1478.13 636.188 1476.3 638.445 1474.14 643.808C1474.14 643.808 1472.89 649.326 1477.91 655.371C1482.93 661.417 1492.29 661.417 1492.29 661.417C1492.29 661.417 1499.56 661.369 1506.63 659.306C1513.7 657.242 1516.38 650.189 1516.38 650.189C1516.38 650.189 1517.48 652.109 1520.44 657.242C1523.4 662.376 1527.75 663 1527.75 663L1526.84 648.894L1531 636.323C1531 636.323 1527.75 634.644 1522.83 639.874C1517.91 645.104 1516.38 642.273 1516.38 642.273L1515.71 639.874L1513.7 636.995C1513.7 636.995 1512.94 636.323 1514.71 634.644C1516.47 632.965 1516.95 633.157 1516.95 633.157L1507.2 625C1507.2 625 1503.86 625 1501.13 626.439C1498.41 627.879 1497.03 629.846 1497.03 629.846C1490.81 630.254 1487.83 631.341 1482.93 633.972Z" fill="#0B4E82"/>
<path d="M1390.93 623.972C1386.13 626.188 1384.3 628.445 1382.14 633.808C1382.14 633.808 1380.89 639.326 1385.91 645.371C1390.93 651.417 1400.29 651.417 1400.29 651.417C1400.29 651.417 1407.56 651.369 1414.63 649.306C1421.7 647.242 1424.38 640.189 1424.38 640.189C1424.38 640.189 1425.48 642.109 1428.44 647.242C1431.4 652.376 1435.75 653 1435.75 653L1434.84 638.894L1439 626.323C1439 626.323 1435.75 624.644 1430.83 629.874C1425.91 635.104 1424.38 632.273 1424.38 632.273L1423.71 629.874L1421.7 626.995C1421.7 626.995 1420.94 626.323 1422.71 624.644C1424.47 622.965 1424.95 623.157 1424.95 623.157L1415.2 615C1415.2 615 1411.86 615 1409.13 616.439C1406.41 617.879 1405.03 619.846 1405.03 619.846C1398.81 620.254 1395.83 621.341 1390.93 623.972Z" fill="#0B4E82"/>
<path d="M1346.93 671.972C1342.13 674.188 1340.3 676.445 1338.14 681.808C1338.14 681.808 1336.89 687.326 1341.91 693.371C1346.93 699.417 1356.29 699.417 1356.29 699.417C1356.29 699.417 1363.56 699.369 1370.63 697.306C1377.7 695.242 1380.38 688.189 1380.38 688.189C1380.38 688.189 1381.48 690.109 1384.44 695.242C1387.4 700.376 1391.75 701 1391.75 701L1390.84 686.894L1395 674.323C1395 674.323 1391.75 672.644 1386.83 677.874C1381.91 683.104 1380.38 680.273 1380.38 680.273L1379.71 677.874L1377.7 674.995C1377.7 674.995 1376.94 674.323 1378.71 672.644C1380.47 670.965 1380.95 671.157 1380.95 671.157L1371.2 663C1371.2 663 1367.86 663 1365.13 664.439C1362.41 665.879 1361.03 667.846 1361.03 667.846C1354.81 668.254 1351.83 669.341 1346.93 671.972Z" fill="#0B4E82"/>
<path d="M1346.93 738.972C1342.13 741.188 1340.3 743.445 1338.14 748.808C1338.14 748.808 1336.89 754.326 1341.91 760.371C1346.93 766.417 1356.29 766.417 1356.29 766.417C1356.29 766.417 1363.56 766.369 1370.63 764.306C1377.7 762.242 1380.38 755.189 1380.38 755.189C1380.38 755.189 1381.48 757.109 1384.44 762.242C1387.4 767.376 1391.75 768 1391.75 768L1390.84 753.894L1395 741.323C1395 741.323 1391.75 739.644 1386.83 744.874C1381.91 750.104 1380.38 747.273 1380.38 747.273L1379.71 744.874L1377.7 741.995C1377.7 741.995 1376.94 741.323 1378.71 739.644C1380.47 737.965 1380.95 738.157 1380.95 738.157L1371.2 730C1371.2 730 1367.86 730 1365.13 731.439C1362.41 732.879 1361.03 734.846 1361.03 734.846C1354.81 735.254 1351.83 736.341 1346.93 738.972Z" fill="#0B4E82"/>
<path d="M1418.93 719.972C1414.13 722.188 1412.3 724.445 1410.14 729.808C1410.14 729.808 1408.89 735.326 1413.91 741.371C1418.93 747.417 1428.29 747.417 1428.29 747.417C1428.29 747.417 1435.56 747.369 1442.63 745.306C1449.7 743.242 1452.38 736.189 1452.38 736.189C1452.38 736.189 1453.48 738.109 1456.44 743.242C1459.4 748.376 1463.75 749 1463.75 749L1462.84 734.894L1467 722.323C1467 722.323 1463.75 720.644 1458.83 725.874C1453.91 731.104 1452.38 728.273 1452.38 728.273L1451.71 725.874L1449.7 722.995C1449.7 722.995 1448.94 722.323 1450.71 720.644C1452.47 718.965 1452.95 719.157 1452.95 719.157L1443.2 711C1443.2 711 1439.86 711 1437.13 712.439C1434.41 713.879 1433.03 715.846 1433.03 715.846C1426.81 716.254 1423.83 717.341 1418.93 719.972Z" fill="#0B4E82"/>
<path d="M463.051 754.007C452.897 721.362 467.282 731.962 475.744 741.343C477.154 742.751 480.821 744.158 484.206 738.53C488.436 731.494 475.744 724.458 468.693 714.609C461.641 704.76 467.282 685.059 484.206 673.802C497.744 664.796 471.043 655.978 456 652.695C530.745 635.809 540.617 669.58 571.643 673.802C602.669 678.023 592.797 675.209 599.849 680.837C605.49 685.34 589.036 711.794 580.105 724.458C582.925 746.972 573.053 772.3 564.592 776.522C557.822 779.899 552.369 762.919 550.489 754.007C547.104 767.516 517.112 784.964 502.539 792C508.18 778.492 500.189 762.919 495.488 756.822L479.975 754.007C478.564 767.61 473.205 786.653 463.051 754.007Z" fill="#0B4E82"/>
<path d="M1869.86 705.434C1859.19 672.953 1853.63 689.933 1852.18 702.482C1851.84 704.447 1849.67 707.721 1843.65 705.1C1836.12 701.824 1842.38 688.73 1842.41 676.617C1842.44 664.504 1826.41 651.73 1806.1 652.379C1789.85 652.899 1806.48 630.225 1816.83 618.824C1746.15 648.435 1757.7 681.669 1734.88 703.108C1712.06 724.546 1718.47 716.527 1715.99 725.202C1714.01 732.142 1742.76 744.143 1757.38 749.276C1768.14 769.25 1790.88 784.153 1800.22 782.682C1807.69 781.505 1802.28 764.512 1798.64 756.162C1809.24 765.201 1843.79 762.012 1859.74 759.288C1847.31 751.558 1844.78 734.238 1845.07 726.545L1856.08 715.252C1865.12 725.513 1880.53 737.914 1869.86 705.434Z" fill="#0B4E82"/>
<path d="M1055.28 977C1122.96 943.763 1245.99 874.201 1196.6 861.852C1147.21 849.503 1086.95 905.937 1062.99 935.697L1085.18 878.958C1076.19 875.556 1057.22 878.352 1045.11 911.145C1044.5 907.083 1041.51 904.224 1034.05 904.824C1021.84 905.807 1017.41 913.788 1016.31 920.704C1016.28 896.783 1011.83 864.365 993.539 886.884C984.292 898.266 980.768 907.073 980.238 913.574C975.414 905.062 968.94 898.532 962.669 904.824C956.644 910.869 954.445 916.795 953.956 921.24C950.981 888.733 942.55 838.05 928.423 855.594C913.375 874.285 918.294 911.221 922.635 927.353C919.098 920.4 909.998 908.579 901.895 916.923C895.523 923.484 897.085 929.616 899.685 933.289C892.753 926.09 881.51 917.48 878.743 927.353C876.631 934.888 879.366 940.119 882.591 943.206L858.967 927.353C854.305 922.764 844.787 916.339 844.015 927.353C843.243 938.367 872.312 965.04 886.943 977H1055.28Z" fill="#0B4E82"/>
<path d="M1485.66 954.915C1484.92 955.211 1484.12 955.32 1483.33 955.232C1482.53 955.145 1481.77 954.864 1481.12 954.414C1480.46 953.964 1479.92 953.358 1479.55 952.652C1479.18 951.945 1478.99 951.158 1479 950.361C1479.03 946.871 1480.09 943.467 1482.04 940.577C1484 937.688 1486.77 935.443 1490 934.124C1493.23 932.805 1496.78 932.472 1500.2 933.166C1503.62 933.861 1506.76 935.552 1509.22 938.026C1509.8 938.61 1510.23 939.33 1510.47 940.121C1510.71 940.912 1510.74 941.749 1510.57 942.557C1510.41 943.365 1510.04 944.118 1509.51 944.75C1508.98 945.382 1508.3 945.871 1507.53 946.175L1485.66 954.915V954.915ZM1558.6 901.615C1559.23 901.075 1559.71 900.39 1560 899.62C1560.3 898.851 1560.4 898.02 1560.29 897.202C1560.19 896.385 1559.88 895.606 1559.41 894.934C1558.93 894.263 1558.29 893.72 1557.55 893.355C1554.42 891.821 1550.91 891.247 1547.45 891.702C1544 892.158 1540.75 893.624 1538.13 895.917C1535.5 898.21 1533.61 901.226 1532.7 904.589C1531.78 907.951 1531.88 911.51 1532.98 914.817C1533.23 915.572 1533.67 916.253 1534.24 916.8C1534.82 917.347 1535.53 917.744 1536.3 917.956C1537.06 918.167 1537.87 918.187 1538.65 918.014C1539.43 917.84 1540.15 917.479 1540.75 916.961L1558.6 901.615ZM1646.59 820.218C1647.16 820.815 1647.86 821.264 1648.64 821.525C1649.42 821.786 1650.25 821.85 1651.07 821.714C1651.88 821.577 1652.64 821.242 1653.29 820.74C1653.95 820.237 1654.46 819.582 1654.8 818.832C1656.22 815.641 1656.65 812.103 1656.06 808.665C1655.46 805.226 1653.87 802.04 1651.46 799.509C1649.06 796.977 1645.96 795.214 1642.56 794.44C1639.16 793.666 1635.6 793.917 1632.34 795.161C1631.6 795.443 1630.93 795.905 1630.41 796.506C1629.88 797.107 1629.51 797.827 1629.33 798.604C1629.15 799.381 1629.16 800.191 1629.37 800.962C1629.58 801.732 1629.97 802.44 1630.51 803.023L1646.59 820.218V820.218ZM1689.25 858.967C1690.07 858.954 1690.88 858.738 1691.6 858.338C1692.32 857.937 1692.93 857.364 1693.37 856.671C1693.82 855.977 1694.08 855.184 1694.15 854.363C1694.21 853.541 1694.07 852.717 1693.74 851.963C1692.33 848.772 1690 846.069 1687.06 844.195C1684.11 842.321 1680.68 841.361 1677.19 841.434C1673.7 841.507 1670.31 842.61 1667.45 844.606C1664.59 846.601 1662.38 849.399 1661.1 852.647C1660.81 853.39 1660.71 854.193 1660.8 854.986C1660.89 855.779 1661.17 856.537 1661.63 857.194C1662.08 857.851 1662.69 858.385 1663.4 858.751C1664.11 859.117 1664.9 859.302 1665.7 859.29L1689.25 858.967ZM1746.59 902.77C1747.13 902.152 1747.52 901.408 1747.7 900.605C1747.89 899.803 1747.88 898.966 1747.67 898.169C1747.45 897.373 1747.04 896.642 1746.48 896.042C1745.91 895.442 1745.21 894.992 1744.42 894.731C1741.11 893.64 1737.56 893.55 1734.2 894.471C1730.84 895.392 1727.83 897.284 1725.54 899.909C1723.25 902.535 1721.78 905.778 1721.33 909.232C1720.87 912.686 1721.45 916.197 1722.98 919.326C1723.33 920.044 1723.85 920.663 1724.5 921.131C1725.15 921.598 1725.9 921.897 1726.69 922.003C1727.48 922.109 1728.29 922.018 1729.04 921.738C1729.79 921.458 1730.45 920.998 1730.98 920.398L1746.59 902.77V902.77ZM1688.9 946.859C1689.51 946.313 1689.99 945.622 1690.27 944.848C1690.56 944.073 1690.65 943.24 1690.53 942.423C1690.41 941.606 1690.09 940.832 1689.6 940.169C1689.11 939.506 1688.46 938.976 1687.71 938.627C1684.56 937.146 1681.04 936.629 1677.59 937.142C1674.14 937.654 1670.92 939.173 1668.33 941.507C1665.75 943.841 1663.91 946.887 1663.04 950.264C1662.18 953.64 1662.33 957.196 1663.48 960.487C1663.74 961.238 1664.19 961.913 1664.78 962.452C1665.37 962.991 1666.08 963.377 1666.85 963.577C1667.62 963.777 1668.43 963.784 1669.21 963.598C1669.98 963.412 1670.7 963.038 1671.3 962.51L1688.9 946.859V946.859ZM1641.03 976.36C1641.67 975.841 1642.17 975.172 1642.49 974.412C1642.81 973.652 1642.93 972.826 1642.86 972.005C1642.78 971.185 1642.5 970.397 1642.04 969.711C1641.59 969.024 1640.97 968.461 1640.24 968.072C1637.16 966.436 1633.67 965.745 1630.2 966.087C1626.73 966.429 1623.44 967.788 1620.74 969.994C1618.04 972.2 1616.05 975.155 1615.03 978.487C1614 981.818 1613.98 985.379 1614.97 988.722C1615.2 989.487 1615.61 990.184 1616.17 990.753C1616.73 991.321 1617.42 991.742 1618.19 991.978C1618.95 992.215 1619.76 992.26 1620.54 992.109C1621.32 991.959 1622.06 991.617 1622.68 991.115L1641.03 976.36Z" fill="#0B4E82"/>
<path d="M1748.03 899.632C1733.33 888.665 1716.77 910.904 1731.47 921.852C1736.06 925.271 1741.25 930.703 1742.42 933.253C1741.97 941.467 1720.34 943.694 1705 958.208C1697.57 947.962 1689.41 942.465 1688.78 942.058C1673.43 932.052 1658.27 955.252 1673.64 965.276C1682.9 971.365 1690.29 984.189 1689.44 998.63C1689.48 1023.63 1682.7 1029.6 1662.5 1039.73C1652.15 1044.92 1639.24 1051.62 1632.4 1065.22C1631.79 1039.73 1686.62 1022.61 1643.11 973.684C1630.92 959.991 1610.21 978.405 1622.41 992.107C1628.61 999.082 1632.03 1005.05 1632.03 1008.91C1632.03 1018.66 1608.54 1032.03 1605.09 1057.05L1604.55 1056.57C1603.51 1055.33 1602.87 1054.76 1599.11 1051.86C1576.05 1033.11 1583.94 1015.28 1595.05 987.589C1609.2 952.582 1622.14 936.561 1633.79 919.062C1639.8 912.835 1637.32 911.846 1657.95 902.284C1679.01 892.527 1693.78 882.447 1692.79 857.529L1665.1 858.665C1665.29 865.04 1665.92 868.025 1646.54 877.024C1643.43 854.961 1623.64 853.27 1619.89 843.208C1617.38 836.427 1631.46 828.01 1644.28 822.864C1661.25 816.054 1651.03 790.314 1633.96 797.142C1581.25 818.299 1582.08 853.935 1613.09 875.074C1619.24 879.269 1619.24 879.62 1619.24 882.373C1619.24 896.869 1606.73 906.598 1589.38 936.182C1579.36 918.498 1564.65 902.921 1560.51 898.717C1547.69 885.653 1527.9 905.037 1540.73 918.138C1553.08 930.74 1571.36 954.697 1571.36 966.099C1571.36 983.986 1554.32 999.276 1556.88 1028.68C1517.31 1009.69 1522.14 1001.3 1522.14 973.887C1522.14 951.307 1507.84 939.73 1506.21 938.483C1492.23 927.821 1475.35 948.516 1489.11 960.296C1495.46 965.72 1494.45 975.578 1494.21 981.62C1490.89 1067.1 1594.14 1045.95 1599.11 1103.65C1599.41 1107.11 1601 1110.33 1603.55 1112.67C1606.11 1115.02 1609.46 1116.32 1612.93 1116.32C1642.34 1116.32 1646.53 1117.58 1651.44 1111.57C1654.07 1108.34 1655.16 1104.46 1654.33 1100.38C1654.24 1099.04 1654.65 1094.83 1654.85 1092.8C1656.37 1077.26 1653.18 1075.42 1674.91 1064.51C1703.48 1050.18 1717.2 1035.16 1717.14 998.648C1717.14 979.403 1726.32 975.208 1740.23 968.861C1752.14 963.428 1770.13 955.206 1770.13 932.542C1770.16 917.704 1754.68 904.584 1748.03 899.632V899.632Z" fill="#0B4E82"/>
<path d="M1723.18 1094C1653.07 1057.04 1525.65 979.688 1576.81 965.956C1627.96 952.223 1690.37 1014.98 1715.18 1048.07L1692.2 984.977C1701.51 981.195 1721.16 984.303 1733.71 1020.77C1734.33 1016.25 1737.44 1013.07 1745.16 1013.74C1757.81 1014.83 1762.39 1023.71 1763.53 1031.4C1763.57 1004.8 1768.17 968.75 1787.12 993.791C1796.7 1006.45 1800.35 1016.24 1800.9 1023.47C1805.89 1014.01 1812.6 1006.74 1819.09 1013.74C1825.33 1020.46 1827.61 1027.05 1828.12 1031.99C1831.2 995.847 1839.93 939.487 1854.56 958.997C1870.15 979.781 1865.05 1020.85 1860.56 1038.79C1864.22 1031.06 1873.64 1017.92 1882.04 1027.19C1888.64 1034.49 1887.02 1041.31 1884.33 1045.39C1891.51 1037.39 1903.15 1027.81 1906.02 1038.79C1908.2 1047.17 1905.37 1052.99 1902.03 1056.42L1926.5 1038.79C1931.33 1033.69 1941.19 1026.54 1941.98 1038.79C1942.78 1051.04 1912.68 1080.7 1897.52 1094H1723.18Z" fill="#0B4E82"/>
<path d="M321.539 619.607C322.424 624.549 312.403 632.954 301.303 637.896C291.087 640.973 286.484 641.008 279.471 639.272C279.44 641.757 278.443 643.139 275.152 645.588C271.424 647.061 271.759 643.334 274.915 639.492C270.012 636.09 269.703 634.508 269.872 631.973C273.572 631.794 275.143 632.57 277.624 634.51C281.415 628.201 284.639 624.956 294.459 620.247C305.95 615.416 320.654 614.665 321.539 619.607Z" fill="#0B4E82"/>
<path d="M324.899 504.308C328.535 524.603 287.38 559.118 241.796 579.415C199.842 592.052 180.941 592.195 152.139 585.067C152.012 595.272 147.916 600.948 134.404 611.002C119.095 617.052 120.47 601.749 133.431 585.969C113.296 572.001 112.024 565.504 112.721 555.09C127.913 554.356 134.364 557.541 144.555 565.509C160.122 539.603 173.362 526.275 213.689 506.936C260.881 487.098 321.264 484.013 324.899 504.308Z" fill="#0B4E82"/>
<path d="M263.539 607.607C264.424 612.549 254.403 620.954 243.303 625.896C233.087 628.973 228.484 629.008 221.471 627.272C221.44 629.757 220.443 631.139 217.152 633.588C213.424 635.061 213.759 631.334 216.915 627.492C212.012 624.09 211.703 622.508 211.872 619.973C215.572 619.794 217.143 620.57 219.624 622.51C223.415 616.201 226.639 612.956 236.459 608.247C247.95 603.416 262.654 602.665 263.539 607.607Z" fill="#0B4E82"/>
<path d="M321.539 619.607C322.424 624.549 312.403 632.954 301.303 637.896C291.087 640.973 286.484 641.008 279.471 639.272C279.44 641.757 278.443 643.139 275.152 645.588C271.424 647.061 271.759 643.334 274.915 639.492C270.012 636.09 269.703 634.508 269.872 631.973C273.572 631.794 275.143 632.57 277.624 634.51C281.415 628.201 284.639 624.956 294.459 620.247C305.95 615.416 320.654 614.665 321.539 619.607Z" fill="#0B4E82"/>
<path d="M328.539 581.607C329.424 586.549 319.403 594.954 308.303 599.896C298.087 602.973 293.484 603.008 286.471 601.272C286.44 603.757 285.443 605.139 282.152 607.588C278.424 609.061 278.759 605.334 281.915 601.492C277.012 598.09 276.703 596.508 276.872 593.973C280.572 593.794 282.143 594.57 284.624 596.51C288.415 590.201 291.639 586.956 301.459 582.247C312.95 577.416 327.654 576.665 328.539 581.607Z" fill="#0B4E82"/>
<path d="M844.98 725.43C844.98 725.43 844.198 743.231 857.941 745.517C868.173 747.262 876.223 726.89 863.423 714.887C850.544 702.929 844.98 725.43 844.98 725.43Z" fill="#ADD0EC" stroke="#0B4E82" stroke-width="6" stroke-miterlimit="10"/>
<path opacity="0.66" d="M855.475 732.894C858.556 733.72 861.725 731.891 862.551 728.809C863.377 725.727 861.547 722.559 858.465 721.733C855.383 720.907 852.215 722.736 851.389 725.818C850.564 728.901 852.392 732.068 855.475 732.894Z" fill="#517B93"/>
<path d="M1016.58 673.891C1079.26 692.678 1093.51 735.97 1129.78 776.956C1129.78 776.956 1153.49 765.364 1147.46 776.708C1141.42 788.051 1137.74 812.981 1135.99 819.492C1134.25 826.003 1126.06 808.191 1126.06 808.191L1125.29 808.317C1087.78 814.475 1066.52 817.966 977.131 793.54C924.853 782.67 899.735 773.044 899.445 727.529C900.333 719.453 904.316 713.584 913.886 702.157C926.062 687.5 933.136 677.341 946.679 671.547C946.351 652.606 934.848 620.29 889.262 615.477C840.144 610.291 844.08 672.487 852.188 704.234C862.819 707.076 880.411 715.216 867.512 718.973C862.033 719.166 849.768 722.194 844.546 732.757C838.775 741.911 833.135 729.091 843.208 710.467C836.762 683.264 831.491 625.717 861.974 613.15C892.456 600.582 918.707 613.066 928.022 620.878C933.254 624.133 946.041 638.188 955.916 668.534C962.341 666.989 970.077 666.088 979.786 665.823C981.935 665.764 984.156 665.737 986.453 665.74C997.646 667.386 1012.26 672.239 1016.58 673.891Z" fill="#0B4E82"/>
<path d="M913.886 702.157C904.316 713.584 900.333 719.453 899.445 727.529C899.735 773.044 924.853 782.67 977.131 793.54C1067.13 818.132 1088.07 814.426 1126.06 808.191C1126.06 808.191 1134.25 826.003 1135.99 819.492C1137.74 812.981 1141.42 788.051 1147.45 776.708C1153.49 765.364 1129.78 776.956 1129.78 776.956C1092.56 734.898 1078.53 690.411 1011.56 672.468C1029.87 678.75 1003.97 668.316 986.453 665.74C984.156 665.737 981.935 665.764 979.786 665.823C939.708 666.917 933.245 678.852 913.886 702.157ZM946.565 675.691C947.93 657.78 938.381 620.663 889.262 615.477C840.144 610.291 844.08 672.487 852.188 704.234C862.819 707.076 880.411 715.216 867.512 718.973C862.033 719.166 849.768 722.194 844.546 732.757C838.775 741.911 833.135 729.091 843.208 710.467C836.762 683.264 831.491 625.717 861.974 613.15C892.456 600.582 918.707 613.066 928.022 620.878C933.339 624.186 946.456 638.644 956.392 670.017L946.565 675.691Z" stroke="#0B4E82"/>
<path d="M10.9321 559.286C6.9321 522.62 0.432097 446.486 6.4321 435.286C12.4321 424.086 11.9321 513.286 10.9321 559.286C14.2653 505.786 22.4316 400.186 28.4316 405.786C34.4316 411.386 19.2653 510.453 10.9321 559.286C22.5986 500.453 47.1316 384.486 51.9316 391.286C56.7316 398.086 26.5986 506.12 10.9321 559.286C28.2653 506.62 64.2316 403.587 69.4316 412.787C74.6316 421.987 32.5986 514.287 10.9321 559.286C32.0986 517.62 75.1316 436.287 77.9316 444.287C80.7316 452.287 34.4319 524.287 10.9321 559.286Z" fill="#065A90"/>
<path d="M696.709 840.402C682.216 806.484 653.851 735.534 656.334 723.073C658.817 710.612 684.285 796.1 696.709 840.402C684.336 788.246 661.432 684.836 668.801 688.449C676.171 692.061 690.477 791.256 696.709 840.402C690.757 780.719 680.497 662.631 687.067 667.74C693.638 672.85 696.233 784.977 696.709 840.402C697.973 784.971 702.413 675.931 710.065 683.22C717.716 690.51 704.349 791.045 696.709 840.402C704.84 794.38 722.354 704.046 727.36 710.886C732.366 717.726 709.011 800.08 696.709 840.402Z" fill="#0B4E82"/>
</g>
<defs>
<linearGradient id="paint0_linear_1174_30" x1="208.5" y1="521" x2="208.5" y2="1083" gradientUnits="userSpaceOnUse">
<stop stop-color="#03568C"/>
<stop offset="0.723958" stop-color="#025F98" stop-opacity="0.871875"/>
<stop offset="1" stop-color="#016BA7" stop-opacity="0.7"/>
</linearGradient>
<linearGradient id="paint1_linear_1174_30" x1="1456.67" y1="558.145" x2="1456.67" y2="1081" gradientUnits="userSpaceOnUse">
<stop stop-color="#018AD4"/>
<stop offset="1" stop-color="#006CAA"/>
</linearGradient>
<clipPath id="clip0_1174_30">
<rect width="1920" height="1080" fill="white"/>
</clipPath>
</defs>
</svg>
