<?xml version="1.0" encoding="UTF-8" standalone="no"?>
<!DOCTYPE svg PUBLIC "-//W3C//DTD SVG 1.1//EN" "http://www.w3.org/Graphics/SVG/1.1/DTD/svg11.dtd">
<svg version="1.1" xmlns="http://www.w3.org/2000/svg" xmlns:xlink="http://www.w3.org/1999/xlink" preserveAspectRatio="xMidYMid meet" viewBox="0 0 640 640" width="500" height="500"><defs><path d="M60 0L580 0L580 520L60 520L60 0Z" id="c2ouk2OIvD"></path><path d="M318.74 518.74C175.94 518.74 60 402.8 60 260C60 117.2 175.94 1.26 318.74 1.26C461.55 1.26 577.49 117.2 577.49 260C577.49 402.8 461.55 518.74 318.74 518.74Z" id="cOkvX1QG0"></path><path d="M341.84 149.38L341.84 191.84L291.6 191.84L291.6 149.38L341.84 149.38Z" id="a22lzsPlU6"></path><path d="M338.28 89.29L338.29 89.13L338.31 88.98L338.33 88.83L338.36 88.68L338.39 88.54L338.43 88.39L338.47 88.25L338.52 88.11L338.58 87.97L338.64 87.84L338.7 87.71L338.77 87.58L338.85 87.46L338.92 87.33L339.01 87.22L339.1 87.1L339.19 86.99L339.28 86.88L339.38 86.78L339.49 86.68L339.6 86.58L339.71 86.49L339.82 86.4L339.94 86.32L340.06 86.24L340.19 86.16L340.32 86.09L340.45 86.03L340.58 85.97L340.72 85.91L340.86 85.86L341 85.82L341.14 85.78L341.29 85.75L341.44 85.72L341.59 85.7L341.74 85.69L341.89 85.68L342.05 85.67L357.12 85.67L357.27 85.68L357.43 85.69L357.58 85.7L357.73 85.72L357.88 85.75L358.02 85.78L358.17 85.82L358.31 85.86L358.45 85.91L358.59 85.97L358.72 86.03L358.85 86.09L358.98 86.16L359.1 86.24L359.23 86.32L359.34 86.4L359.46 86.49L359.57 86.58L359.68 86.68L359.78 86.78L359.88 86.88L359.98 86.99L360.07 87.1L360.16 87.22L360.24 87.33L360.32 87.46L360.4 87.58L360.47 87.71L360.53 87.84L360.59 87.97L360.65 88.11L360.7 88.25L360.74 88.39L360.78 88.54L360.81 88.68L360.84 88.83L360.86 88.98L360.87 89.13L360.88 89.29L360.89 89.44L360.89 129L375.96 145.96L360.89 145.96L360.89 198.7L327.34 198.7L327.34 198.7L327.34 198.53L327.34 161.93L327.34 161.77L327.33 161.6L327.31 161.44L327.29 161.27L327.26 161.11L327.23 160.96L327.19 160.8L327.14 160.65L327.09 160.5L327.04 160.35L326.97 160.21L326.91 160.07L326.84 159.93L326.76 159.79L326.68 159.66L326.59 159.53L326.5 159.41L326.41 159.29L326.31 159.17L326.2 159.06L326.1 158.95L325.98 158.85L325.87 158.75L325.75 158.65L325.63 158.56L325.5 158.48L325.37 158.4L325.24 158.32L325.1 158.25L324.97 158.19L324.83 158.13L324.68 158.07L324.54 158.03L324.39 157.99L324.24 157.95L324.08 157.92L323.93 157.9L323.77 157.88L323.61 157.87L323.45 157.87L307.9 157.87L307.74 157.87L307.58 157.88L307.42 157.9L307.27 157.92L307.11 157.95L306.96 157.99L306.81 158.03L306.67 158.07L306.52 158.13L306.38 158.19L306.24 158.25L306.11 158.32L305.98 158.4L305.85 158.48L305.72 158.56L305.6 158.65L305.48 158.75L305.37 158.85L305.25 158.95L305.15 159.06L305.04 159.17L304.94 159.29L304.85 159.41L304.76 159.53L304.67 159.66L304.59 159.79L304.51 159.93L304.44 160.07L304.37 160.21L304.31 160.35L304.26 160.5L304.21 160.65L304.16 160.8L304.12 160.96L304.09 161.11L304.06 161.27L304.04 161.44L304.02 161.6L304.01 161.77L304.01 161.93L304.01 198.53L304.01 198.7L304.01 198.7L270.46 198.7L270.46 145.96L255.39 145.96L315.67 78.14L338.28 103.57L338.28 89.44L338.28 89.29Z" id="aHzUCt3fN"></path><path d="M316.26 384.03C261.07 384.03 216.26 339.22 216.26 284.03C216.26 228.84 261.07 184.03 316.26 184.03C371.45 184.03 416.26 228.84 416.26 284.03C416.26 339.22 371.45 384.03 316.26 384.03Z" id="brn9sGeZJ"></path><path d="M316.26 372.85C267.97 372.85 228.76 333.65 228.76 285.35C228.76 237.06 267.97 197.85 316.26 197.85C364.56 197.85 403.76 237.06 403.76 285.35C403.76 333.65 364.56 372.85 316.26 372.85Z" id="aqRSPFlMX"></path><path d="M316.26 360.35C274.87 360.35 241.26 326.75 241.26 285.35C241.26 243.96 274.87 210.35 316.26 210.35C357.66 210.35 391.26 243.96 391.26 285.35C391.26 326.75 357.66 360.35 316.26 360.35Z" id="biFENiKMR"></path><path d="M317.95 347.85C283.45 347.85 255.45 319.85 255.45 285.35C255.45 250.86 283.45 222.85 317.95 222.85C352.44 222.85 380.45 250.86 380.45 285.35C380.45 319.85 352.44 347.85 317.95 347.85Z" id="dnCCVOxff"></path><path d="M317.95 335.35C290.35 335.35 267.95 312.95 267.95 285.35C267.95 257.76 290.35 235.35 317.95 235.35C345.54 235.35 367.95 257.76 367.95 285.35C367.95 312.95 345.54 335.35 317.95 335.35Z" id="cH4hDHd3o"></path><path d="M317.95 322.85C297.25 322.85 280.45 306.05 280.45 285.35C280.45 264.66 297.25 247.85 317.95 247.85C338.64 247.85 355.45 264.66 355.45 285.35C355.45 306.05 338.64 322.85 317.95 322.85Z" id="a2w91lo661"></path><path d="M317.95 310.35C304.15 310.35 292.95 299.15 292.95 285.35C292.95 271.56 304.15 260.35 317.95 260.35C331.75 260.35 342.95 271.56 342.95 285.35C342.95 299.15 331.75 310.35 317.95 310.35Z" id="d72ZsWjYz"></path><path d="M327.54 317.11C327.54 318.3 327.51 319.48 327.43 320.65C349.22 325.43 365.23 341.47 365.23 360.51C365.23 360.51 365.23 360.51 365.23 360.51C365.23 383.33 342.24 401.83 313.87 401.83C300.99 401.83 197.92 401.83 185.03 401.83C156.67 401.83 133.67 383.33 133.67 360.51C133.67 360.51 133.67 360.51 133.67 360.51C133.67 340.61 151.15 324 174.42 320.08C176.51 298.51 193.96 281.67 215.17 281.67C219.83 281.67 224.31 282.49 228.48 283.98C238.4 269.54 254.61 260.12 272.94 260.12C303.09 260.12 327.54 285.64 327.54 317.11Z" id="bFfQumDD"></path><path d="M466.13 316.83C466.13 318.02 466.09 319.2 466.02 320.36C487.8 325.15 503.81 341.18 503.81 360.22C503.81 360.22 503.81 360.22 503.81 360.22C503.81 383.04 480.82 401.54 452.45 401.54C439.57 401.54 336.5 401.54 323.62 401.54C295.25 401.54 272.25 383.04 272.25 360.22C272.25 360.22 272.25 360.22 272.25 360.22C272.25 340.33 289.73 323.72 313.01 319.79C315.09 298.22 332.54 281.39 353.75 281.39C358.42 281.39 362.89 282.2 367.07 283.7C376.98 269.25 393.19 259.84 411.52 259.84C441.67 259.84 466.13 285.35 466.13 316.83Z" id="f3gyzMVCUS"></path><path d="M391.76 320.5C391.76 321.64 391.73 322.77 391.65 323.88C413.44 328.46 429.45 343.81 429.45 362.04C429.45 362.04 429.45 362.04 429.45 362.04C429.45 383.9 406.46 401.61 378.09 401.61C365.21 401.61 262.14 401.61 249.25 401.61C220.89 401.61 197.89 383.9 197.89 362.04C197.89 362.04 197.89 362.04 197.89 362.04C197.89 343 215.37 327.09 238.64 323.33C240.73 302.68 258.18 286.56 279.39 286.56C284.05 286.56 288.53 287.34 292.7 288.77C302.62 274.95 318.83 265.93 337.16 265.93C367.31 265.93 391.76 290.35 391.76 320.5Z" id="b2cyoiAvfF"></path></defs><g><g><g><use xlink:href="#c2ouk2OIvD" opacity="1" fill="#22d1ee" fill-opacity="1"></use></g><g><use xlink:href="#cOkvX1QG0" opacity="1" fill="#22d1ee" fill-opacity="1"></use><g><use xlink:href="#cOkvX1QG0" opacity="1" fill-opacity="0" stroke="#000000" stroke-width="1" stroke-opacity="0"></use></g></g><g><use xlink:href="#a22lzsPlU6" opacity="1" fill="#d8983c" fill-opacity="1"></use><g><use xlink:href="#a22lzsPlU6" opacity="1" fill-opacity="0" stroke="#000000" stroke-width="1" stroke-opacity="0"></use></g></g><g><use xlink:href="#aHzUCt3fN" opacity="1" fill="#d8983c" fill-opacity="1"></use><g><use xlink:href="#aHzUCt3fN" opacity="1" fill-opacity="0" stroke="#000000" stroke-width="1" stroke-opacity="0"></use></g></g><g><use xlink:href="#brn9sGeZJ" opacity="1" fill="#ff5555" fill-opacity="1"></use><g><use xlink:href="#brn9sGeZJ" opacity="1" fill-opacity="0" stroke="#000000" stroke-width="1" stroke-opacity="0"></use></g></g><g><use xlink:href="#aqRSPFlMX" opacity="1" fill="#ffbb3f" fill-opacity="1"></use><g><use xlink:href="#aqRSPFlMX" opacity="1" fill-opacity="0" stroke="#000000" stroke-width="1" stroke-opacity="0"></use></g></g><g><use xlink:href="#biFENiKMR" opacity="1" fill="#fee855" fill-opacity="1"></use><g><use xlink:href="#biFENiKMR" opacity="1" fill-opacity="0" stroke="#000000" stroke-width="1" stroke-opacity="0"></use></g></g><g><use xlink:href="#dnCCVOxff" opacity="1" fill="#95fb73" fill-opacity="1"></use><g><use xlink:href="#dnCCVOxff" opacity="1" fill-opacity="0" stroke="#000000" stroke-width="1" stroke-opacity="0"></use></g></g><g><use xlink:href="#cH4hDHd3o" opacity="1" fill="#73c3fb" fill-opacity="1"></use><g><use xlink:href="#cH4hDHd3o" opacity="1" fill-opacity="0" stroke="#000000" stroke-width="1" stroke-opacity="0"></use></g></g><g><use xlink:href="#a2w91lo661" opacity="1" fill="#9273fb" fill-opacity="1"></use><g><use xlink:href="#a2w91lo661" opacity="1" fill-opacity="0" stroke="#000000" stroke-width="1" stroke-opacity="0"></use></g></g><g><use xlink:href="#d72ZsWjYz" opacity="1" fill="#d073fb" fill-opacity="1"></use><g><use xlink:href="#d72ZsWjYz" opacity="1" fill-opacity="0" stroke="#000000" stroke-width="1" stroke-opacity="0"></use></g></g><g><use xlink:href="#bFfQumDD" opacity="1" fill="#fffafa" fill-opacity="1"></use><g><use xlink:href="#bFfQumDD" opacity="1" fill-opacity="0" stroke="#000000" stroke-width="1" stroke-opacity="0"></use></g></g><g><use xlink:href="#f3gyzMVCUS" opacity="1" fill="#ffffff" fill-opacity="1"></use><g><use xlink:href="#f3gyzMVCUS" opacity="1" fill-opacity="0" stroke="#000000" stroke-width="1" stroke-opacity="0"></use></g></g><g><use xlink:href="#b2cyoiAvfF" opacity="1" fill="#fffafa" fill-opacity="1"></use><g><use xlink:href="#b2cyoiAvfF" opacity="1" fill-opacity="0" stroke="#000000" stroke-width="1" stroke-opacity="0"></use></g></g></g></g></svg>