<svg width="86" height="86" viewBox="0 0 86 86" fill="none" xmlns="http://www.w3.org/2000/svg">
<path d="M42.9987 42.9998C52.8938 42.9998 60.9154 34.9783 60.9154 25.0832C60.9154 15.1881 52.8938 7.1665 42.9987 7.1665C33.1036 7.1665 25.082 15.1881 25.082 25.0832C25.082 34.9783 33.1036 42.9998 42.9987 42.9998Z" stroke="#0E3147" stroke-width="7.91667"/>
<path d="M60.9162 50.1665H62.1776C64.7973 50.1672 67.3265 51.1246 69.2902 52.8586C71.2538 54.5926 72.5167 56.984 72.8416 59.5835L74.2426 70.7778C74.3687 71.7863 74.2788 72.81 73.9789 73.7811C73.679 74.7521 73.1761 75.6483 72.5034 76.4101C71.8307 77.1719 71.0037 77.7819 70.0772 78.1997C69.1508 78.6175 68.146 78.8334 67.1297 78.8332H18.8694C17.8531 78.8334 16.8484 78.6175 15.9219 78.1997C14.9954 77.7819 14.1684 77.1719 13.4957 76.4101C12.8231 75.6483 12.3201 74.7521 12.0202 73.7811C11.7204 72.81 11.6305 71.7863 11.7565 70.7778L13.154 59.5835C13.479 56.9828 14.7429 54.5904 16.708 52.8562C18.6732 51.122 21.2042 50.1655 23.8251 50.1665H25.0829" stroke="#0E3147" stroke-width="7.91667" stroke-linecap="round" stroke-linejoin="round"/>
</svg>
