<svg width="95" height="95" viewBox="0 0 95 95" fill="none" xmlns="http://www.w3.org/2000/svg">
<path d="M21.0597 44.0204H12.7101C11.5597 44.0204 10.623 44.957 10.623 46.1074V51.6738C10.623 52.8242 11.5597 53.7609 12.7101 53.7609H21.0597C22.2101 53.7609 23.1467 52.8242 23.1467 51.6738V46.1074C23.1467 44.957 22.2101 44.0204 21.0597 44.0204ZM16.188 52.37H12.7101C12.5256 52.3696 12.3487 52.2961 12.2182 52.1657C12.0878 52.0352 12.0143 51.8583 12.0139 51.6738V46.1074C12.0143 45.9229 12.0878 45.7461 12.2182 45.6156C12.3487 45.4851 12.5256 45.4116 12.7101 45.4113H16.1895V52.37H16.188ZM21.7544 51.6753C21.754 51.8598 21.6805 52.0367 21.55 52.1671C21.4196 52.2976 21.2427 52.3711 21.0582 52.3715H17.5788V45.4127H21.0582C21.2427 45.4131 21.4196 45.4866 21.55 45.6171C21.6805 45.7475 21.754 45.9244 21.7544 46.1089V51.6753M21.0597 58.6326H12.7101C11.5597 58.6326 10.623 59.5692 10.623 60.7196V66.286C10.623 67.4364 11.5597 68.373 12.7101 68.373H21.0597C22.2101 68.373 23.1467 67.4364 23.1467 66.286V60.7196C23.1467 59.5692 22.2101 58.6326 21.0597 58.6326ZM16.188 66.9822H12.7101C12.5256 66.9818 12.3487 66.9083 12.2182 66.7779C12.0878 66.6474 12.0143 66.4705 12.0139 66.286V60.7196C12.0143 60.5351 12.0878 60.3582 12.2182 60.2278C12.3487 60.0973 12.5256 60.0238 12.7101 60.0234H16.1895V66.9822H16.188ZM21.7544 66.286C21.754 66.4705 21.6805 66.6474 21.55 66.7779C21.4196 66.9083 21.2427 66.9818 21.0582 66.9822H17.5788V60.0234H21.0582C21.2427 60.0238 21.4196 60.0973 21.55 60.2278C21.6805 60.3582 21.754 60.5351 21.7544 60.7196V66.286ZM21.0597 72.5486H12.7101C11.5597 72.5486 10.623 73.4852 10.623 74.6356V80.202C10.623 81.3524 11.5597 82.2891 12.7101 82.2891H21.0597C22.2101 82.2891 23.1467 81.3524 23.1467 80.202V74.6356C23.1467 73.4852 22.2101 72.5486 21.0597 72.5486ZM16.188 80.8982H12.7101C12.5256 80.8978 12.3487 80.8243 12.2182 80.6939C12.0878 80.5634 12.0143 80.3865 12.0139 80.202V74.6356C12.0143 74.4511 12.0878 74.2743 12.2182 74.1438C12.3487 74.0133 12.5256 73.9398 12.7101 73.9395H16.1895V80.8982H16.188ZM21.7544 80.202C21.754 80.3865 21.6805 80.5634 21.55 80.6939C21.4196 80.8243 21.2427 80.8978 21.0582 80.8982H17.5788V73.9395H21.0582C21.2427 73.9398 21.4196 74.0133 21.55 74.1438C21.6805 74.2743 21.754 74.4511 21.7544 74.6356V80.202ZM71.852 46.1089V51.6753C71.852 52.8257 72.7887 53.7623 73.9391 53.7623H82.2887C83.4391 53.7623 84.3757 52.8257 84.3757 51.6753V46.1089C84.3757 44.9585 83.4391 44.0219 82.2887 44.0219H73.9391C73.3857 44.0223 72.855 44.2423 72.4637 44.6336C72.0724 45.0249 71.8524 45.5555 71.852 46.1089M78.8108 45.4127H82.2902C82.4747 45.4131 82.6515 45.4866 82.782 45.6171C82.9125 45.7475 82.9859 45.9244 82.9863 46.1089V51.6753C82.9859 51.8598 82.9125 52.0367 82.782 52.1671C82.6515 52.2976 82.4747 52.3711 82.2902 52.3715H78.8108V45.4127M77.4184 52.37H73.9391C73.7545 52.3696 73.5777 52.2961 73.4472 52.1657C73.3168 52.0352 73.2433 51.8583 73.2429 51.6738V46.1074C73.2433 45.9229 73.3168 45.7461 73.4472 45.6156C73.5777 45.4851 73.7545 45.4116 73.9391 45.4113H77.4184V52.37ZM82.2902 58.6326H73.9405C72.7902 58.6326 71.8535 59.5692 71.8535 60.7196V66.286C71.8535 67.4364 72.7902 68.373 73.9405 68.373H82.2902C83.4405 68.373 84.3772 67.4364 84.3772 66.286V60.7196C84.3772 59.5692 83.4405 58.6326 82.2902 58.6326ZM77.4184 66.9822H73.9391C73.7545 66.9818 73.5777 66.9083 73.4472 66.7779C73.3168 66.6474 73.2433 66.4705 73.2429 66.286V60.7196C73.2433 60.5351 73.3168 60.3582 73.4472 60.2278C73.5777 60.0973 73.7545 60.0238 73.9391 60.0234H77.4184V66.9822ZM82.9848 66.286C82.9844 66.4705 82.911 66.6474 82.7805 66.7779C82.65 66.9083 82.4732 66.9818 82.2887 66.9822H78.8093V60.0234H82.2887C82.4732 60.0238 82.65 60.0973 82.7805 60.2278C82.911 60.3582 82.9844 60.5351 82.9848 60.7196V66.286ZM82.2902 72.5486H73.9405C72.7902 72.5486 71.8535 73.4852 71.8535 74.6356V80.202C71.8535 81.3524 72.7902 82.2891 73.9405 82.2891H82.2902C83.4405 82.2891 84.3772 81.3524 84.3772 80.202V74.6356C84.3772 73.4852 83.4405 72.5486 82.2902 72.5486ZM77.4184 80.8982H73.9391C73.7545 80.8978 73.5777 80.8243 73.4472 80.6939C73.3168 80.5634 73.2433 80.3865 73.2429 80.202V74.6356C73.2433 74.4511 73.3168 74.2743 73.4472 74.1438C73.5777 74.0133 73.7545 73.9398 73.9391 73.9395H77.4184V80.8982ZM82.9848 80.202C82.9844 80.3865 82.911 80.5634 82.7805 80.6939C82.65 80.8243 82.4732 80.8978 82.2887 80.8982H78.8093V73.9395H82.2887C82.4732 73.9398 82.65 74.0133 82.7805 74.1438C82.911 74.2743 82.9844 74.4511 82.9848 74.6356V80.202ZM33.3963 53.9538C32.6141 53.6896 32.2682 53.5382 32.2682 53.1938C32.2682 52.9148 32.5562 52.6743 33.1544 52.6743C33.7466 52.6743 34.1801 52.8257 34.422 52.9296L34.7293 51.9455C34.235 51.7563 33.7088 51.6641 33.1796 51.6738C31.7442 51.6738 30.8803 52.3789 30.8803 53.2977C30.8803 54.08 31.5379 54.5773 32.5487 54.889C33.2776 55.1191 33.567 55.3135 33.567 55.649C33.567 56.0008 33.233 56.2323 32.6022 56.2323C32.0173 56.2323 31.4503 56.0661 31.0807 55.8969L30.8016 56.9048C31.143 57.0725 31.8288 57.2328 32.5235 57.2328C34.1905 57.2328 34.9742 56.4654 34.9742 55.5614C34.9742 54.8014 34.4695 54.3056 33.3963 53.9538M39.0028 52.6832C39.4882 52.6832 39.8771 52.7767 40.1547 52.8821L40.4338 51.9158C40.1918 51.803 39.6515 51.6753 38.939 51.6753C37.0998 51.6753 35.6199 52.698 35.6199 54.5387C35.6199 56.075 36.702 57.2328 38.8039 57.2328C39.5431 57.2328 40.1116 57.1141 40.364 57.0013L40.1547 56.0498C39.7843 56.1661 39.3984 56.2256 39.0102 56.2264C37.7856 56.2264 37.0642 55.5451 37.0642 54.4659C37.0657 53.2666 37.9133 52.6832 39.0028 52.6832M44.9077 53.8351H42.644V51.7629H41.2665V57.1527H42.644V54.8964H44.9077V57.1527H46.2777V51.7629H44.9077V53.8351ZM50.1534 51.6753C48.3603 51.6753 47.198 52.8821 47.198 54.4971C47.198 56.0334 48.252 57.2417 50.054 57.2417C51.8308 57.2417 53.0376 56.1685 53.0376 54.4036C53.0361 52.9133 52.0193 51.6753 50.1534 51.6753ZM50.1282 56.2739C49.2079 56.2739 48.6498 55.5288 48.6498 54.4734C48.6498 53.4254 49.1901 52.6416 50.1178 52.6416C51.0648 52.6416 51.5873 53.4744 51.5873 54.4422C51.5873 55.4902 51.0545 56.2739 50.1282 56.2739ZM56.6194 51.6753C54.8248 51.6753 53.6625 52.8821 53.6625 54.4971C53.6625 56.0334 54.7164 57.2417 56.5184 57.2417C58.2967 57.2417 59.5035 56.1685 59.5035 54.4036C59.502 52.9133 58.4823 51.6753 56.6194 51.6753M56.5912 56.2739C55.6709 56.2739 55.1127 55.5288 55.1127 54.4734C55.1127 53.4254 55.653 52.6416 56.5808 52.6416C57.5293 52.6416 58.0503 53.4744 58.0503 54.4422C58.0503 55.4902 57.5189 56.2739 56.5912 56.2739ZM61.782 51.7629H60.403V57.1527H64.1986V56.1284H61.782V51.7629ZM57.2413 39.1502C57.2413 36.5664 56.2149 34.0885 54.388 32.2616C52.561 30.4346 50.0831 29.4082 47.4994 29.4082C44.9156 29.4082 42.4377 30.4346 40.6108 32.2616C38.7838 34.0885 37.7574 36.5664 37.7574 39.1502C37.7574 41.7339 38.7838 44.2118 40.6108 46.0388C42.4377 47.8657 44.9156 48.8921 47.4994 48.8921C50.0831 48.8921 52.561 47.8657 54.388 46.0388C56.2149 44.2118 57.2413 41.7339 57.2413 39.1502M40.5421 39.1502C40.5425 37.3042 41.2762 35.534 42.5818 34.229C43.8873 32.9239 45.6579 32.191 47.5038 32.1914C49.3498 32.1918 51.12 32.9255 52.425 34.2311C53.73 35.5366 54.463 37.3072 54.4626 39.1531C54.4622 40.9991 53.7285 42.7693 52.4229 44.0743C51.1173 45.3793 49.3468 46.1123 47.5009 46.1119C45.6549 46.1115 43.8847 45.3778 42.5797 44.0722C41.2746 42.7666 40.5417 40.9961 40.5421 39.1502Z" fill="#0E3147"/>
<path d="M48.8916 40.5427V34.9763C48.8916 34.2104 48.2652 33.584 47.4993 33.584C46.7334 33.584 46.107 34.2104 46.107 34.9763V39.1519H44.7146C43.9487 39.1519 43.3223 39.7783 43.3223 40.5442C43.3223 41.3102 43.9487 41.9366 44.7146 41.9366H47.4993C47.8682 41.9346 48.2215 41.7871 48.4822 41.5261C48.7429 41.2651 48.8901 40.9117 48.8916 40.5427Z" fill="#0E3147"/>
<path d="M90.6404 86.4648H89.248V41.9336H90.1891C91.7552 41.9336 92.4602 40.8129 91.7611 39.4443L87.1937 30.5069C86.493 29.1383 84.6391 28.0176 83.0745 28.0176H59.5338L48.8909 19.4023V16.003C54.4573 20.4443 60.0237 6.43477 65.5901 10.8775C60.0237 3.01922 54.4573 13.6102 48.8909 5.75195V4.36109C48.8923 3.59516 48.2659 2.96875 47.5 2.96875C46.7341 2.96875 46.1077 3.59516 46.1077 4.36109V19.4037L35.4647 28.0191H11.927C10.3609 28.0191 8.50695 29.1398 7.80781 30.5084L3.24039 39.4458C2.53977 40.8144 3.24633 41.9351 4.81234 41.9351H5.75344V86.4663H4.36109C3.99232 86.4671 3.63885 86.6139 3.37795 86.8745C3.11704 87.1351 2.96993 87.4884 2.96875 87.8572V90.6404C2.96993 91.0092 3.11704 91.3625 3.37795 91.6231C3.63885 91.8837 3.99232 92.0305 4.36109 92.0312H90.6404C91.0089 92.0301 91.362 91.8832 91.6226 91.6226C91.8832 91.362 92.0301 91.0089 92.0312 90.6404V87.8572C92.0305 87.4884 91.8837 87.1349 91.6231 86.874C91.3625 86.6131 91.0092 86.466 90.6404 86.4648M25.2344 86.4648H8.53516V41.9336H21.801C21.8277 42.1755 21.8752 42.4056 21.9495 42.6149C22.3131 43.6317 23.37 44.7168 25.2359 44.7168V86.4648H25.2344ZM62.3438 90.3153H32.6562V88.0888H62.3438V90.3153ZM39.1504 86.4648V69.7656H46.8038V86.4648H39.1504ZM48.1962 86.4648V69.7656H55.8496V86.4648H48.1962ZM66.9824 86.4648H58.6328V69.7656H61.416V66.9735C61.416 66.9735 51.8522 61.1948 48.8181 59.0351C48.429 58.7724 47.9702 58.632 47.5007 58.632C47.0312 58.632 46.5725 58.7724 46.1834 59.0351C43.1493 61.1948 33.5855 66.9735 33.5855 66.9735V69.7656H36.3672V86.4648H28.0176V41.9336H25.2344C24.4684 41.9336 24.3274 41.5343 24.9167 41.0489L46.4253 23.3344C46.7207 23.0924 47.1111 22.9707 47.5 22.9707C47.8889 22.9707 48.2778 23.0924 48.5747 23.3344L70.0833 41.0489C70.6726 41.5343 70.5316 41.9336 69.7656 41.9336H66.9824V86.4648ZM86.4648 86.4648H69.7656V44.7168C71.6315 44.7168 72.6884 43.6317 73.052 42.6149C73.1263 42.4056 73.1737 42.1755 73.2005 41.9336H86.4663V86.4648H86.4648Z" fill="#0E3147"/>
<path d="M43.4121 77.4189H45.413V78.4298H43.4121V77.4189ZM49.5871 77.4189H51.588V78.4298H49.5871V77.4189Z" fill="#0E3147"/>
</svg>
