<svg width="95" height="95" viewBox="0 0 95 95" fill="none" xmlns="http://www.w3.org/2000/svg">
<g clip-path="url(#clip0_1380_304)">
<path d="M81.8054 21.1113H60.6943V26.3891H81.8054V81.8058H60.6943V87.0835H87.0832V26.3891C87.0832 24.9894 86.5272 23.6469 85.5374 22.6572C84.5476 21.6674 83.2052 21.1113 81.8054 21.1113Z" fill="#0E3147"/>
<path d="M52.4612 7.9165H16.1501C14.6664 7.9165 13.2434 8.50592 12.1942 9.55508C11.1451 10.6042 10.5557 12.0272 10.5557 13.5109V87.0832H58.0557V13.5109C58.0557 12.0272 57.4663 10.6042 56.4171 9.55508C55.3679 8.50592 53.945 7.9165 52.4612 7.9165ZM52.7779 81.8054H44.8612V73.8887H23.7501V81.8054H15.8334V13.5109C15.8334 13.4694 15.8416 13.4282 15.8575 13.3898C15.8735 13.3513 15.8968 13.3164 15.9262 13.287C15.9556 13.2576 15.9905 13.2343 16.0289 13.2184C16.0673 13.2025 16.1085 13.1943 16.1501 13.1943H52.4612C52.5028 13.1943 52.544 13.2025 52.5824 13.2184C52.6208 13.2343 52.6557 13.2576 52.6851 13.287C52.7145 13.3164 52.7379 13.3513 52.7538 13.3898C52.7697 13.4282 52.7779 13.4694 52.7779 13.5109V81.8054Z" fill="#0E3147"/>
<path d="M21.1113 21.1113H26.3891V26.3891H21.1113V21.1113Z" fill="#0E3147"/>
<path d="M31.667 21.1113H36.9448V26.3891H31.667V21.1113Z" fill="#0E3147"/>
<path d="M42.2227 21.1113H47.5004V26.3891H42.2227V21.1113Z" fill="#0E3147"/>
<path d="M21.1113 34.3057H26.3891V39.5834H21.1113V34.3057Z" fill="#0E3147"/>
<path d="M31.667 34.3057H36.9448V39.5834H31.667V34.3057Z" fill="#0E3147"/>
<path d="M42.2227 34.3057H47.5004V39.5834H42.2227V34.3057Z" fill="#0E3147"/>
<path d="M21.1113 47.5H26.3891V52.7778H21.1113V47.5Z" fill="#0E3147"/>
<path d="M31.667 47.5H36.9448V52.7778H31.667V47.5Z" fill="#0E3147"/>
<path d="M42.2227 47.5H47.5004V52.7778H42.2227V47.5Z" fill="#0E3147"/>
<path d="M21.1113 60.6943H26.3891V65.9721H21.1113V60.6943Z" fill="#0E3147"/>
<path d="M31.667 60.6943H36.9448V65.9721H31.667V60.6943Z" fill="#0E3147"/>
<path d="M42.2227 60.6943H47.5004V65.9721H42.2227V60.6943Z" fill="#0E3147"/>
<path d="M60.6943 34.3057H65.9721V39.5834H60.6943V34.3057Z" fill="#0E3147"/>
<path d="M71.25 34.3057H76.5278V39.5834H71.25V34.3057Z" fill="#0E3147"/>
<path d="M60.6943 47.5H65.9721V52.7778H60.6943V47.5Z" fill="#0E3147"/>
<path d="M71.25 47.5H76.5278V52.7778H71.25V47.5Z" fill="#0E3147"/>
<path d="M60.6943 60.6943H65.9721V65.9721H60.6943V60.6943Z" fill="#0E3147"/>
<path d="M71.25 60.6943H76.5278V65.9721H71.25V60.6943Z" fill="#0E3147"/>
</g>
<defs>
<clipPath id="clip0_1380_304">
<rect width="95" height="95" fill="white"/>
</clipPath>
</defs>
</svg>
