<svg width="95" height="95" viewBox="0 0 95 95" fill="none" xmlns="http://www.w3.org/2000/svg">
<path fill-rule="evenodd" clip-rule="evenodd" d="M59.3752 83.125C59.3752 86.2744 58.1241 89.2949 55.8971 91.5219C53.6701 93.7489 50.6497 95 47.5002 95C44.3508 95 41.3303 93.7489 39.1034 91.5219C36.8764 89.2949 35.6252 86.2744 35.6252 83.125C35.6252 79.9756 36.8764 76.9551 39.1034 74.7281C41.3303 72.5011 44.3508 71.25 47.5002 71.25C50.6497 71.25 53.6701 72.5011 55.8971 74.7281C58.1241 76.9551 59.3752 79.9756 59.3752 83.125V83.125ZM69.944 30.6316C69.109 29.7976 67.9772 29.3292 66.7971 29.3292C65.617 29.3292 64.4852 29.7976 63.6502 30.6316L51.9534 42.3284V4.45312C51.9534 3.27208 51.4842 2.13941 50.6491 1.30429C49.814 0.469167 48.6813 0 47.5002 0C46.3192 0 45.1865 0.469167 44.3514 1.30429C43.5163 2.13941 43.0471 3.27208 43.0471 4.45312V42.3284L31.3502 30.6316C30.5061 29.845 29.3896 29.4167 28.2359 29.4371C27.0822 29.4574 25.9815 29.9248 25.1656 30.7407C24.3497 31.5566 23.8824 32.6573 23.862 33.811C23.8417 34.9646 24.2699 36.0811 25.0565 36.9253L44.3534 56.2222L47.5002 59.375L50.6471 56.2281L69.944 36.9312C70.3578 36.5177 70.6861 36.0267 70.91 35.4862C71.134 34.9457 71.2493 34.3664 71.2493 33.7814C71.2493 33.1964 71.134 32.6171 70.91 32.0766C70.6861 31.5361 70.3578 31.0451 69.944 30.6316V30.6316Z" fill="#0E3147"/>
</svg>
